<?xml version="1.0" standalone="no"?><!DOCTYPE svg PUBLIC "-//W3C//DTD SVG 1.1//EN" "http://www.w3.org/Graphics/SVG/1.1/DTD/svg11.dtd"><svg t="1605792899494" class="icon" viewBox="0 0 1024 1024" version="1.1" xmlns="http://www.w3.org/2000/svg" p-id="10197" xmlns:xlink="http://www.w3.org/1999/xlink" width="200" height="200"><defs><style type="text/css"></style></defs><path d="M511.5 735.9C400 735.9 213 687.4 213 362.7c0-164.6 133.9-298.5 298.5-298.5 47.9 0 95.6 11.7 137.8 33.6 8.6 4.5 16.9 9.3 25 14.6 17.2 11.3 22 34.4 10.7 51.7-11.3 17.2-34.4 22-51.6 10.7-6-3.9-12.2-7.5-18.5-10.8-32.1-16.7-66.8-25.2-103.3-25.2-123.5 0-223.9 100.4-223.9 223.9 0 200.9 73.3 298.5 223.9 298.5s223.9-97.7 223.9-298.5c0-28.2-5.2-55.7-15.4-81.8-7.5-19.2 1.9-40.8 21.1-48.4 19.1-7.5 40.8 1.9 48.3 21.1 13.6 34.7 20.6 71.5 20.6 109C810 687.4 623 735.9 511.5 735.9" fill="#f7f7f7" p-id="10198"></path><path d="M922 959.8c-14.5 0-28.4-8.5-34.4-22.8-23.3-55.4-139.9-201.1-264.1-201.1H399.6c-124.3 0-240.8 145.7-264.2 201.1-8 19-29.9 27.8-48.9 19.9-19-8-27.9-29.9-19.9-48.9 30.6-72.6 169.9-246.7 333-246.7h223.9c163.1 0 302.3 174.1 332.9 246.7 8 19-1 40.9-19.9 48.9-4.7 2-9.7 2.9-14.5 2.9" fill="#f7f7f7" p-id="10199"></path></svg>