<?xml version="1.0" standalone="no"?><!DOCTYPE svg PUBLIC "-//W3C//DTD SVG 1.1//EN" "http://www.w3.org/Graphics/SVG/1.1/DTD/svg11.dtd"><svg t="1605792857593" class="icon" viewBox="0 0 1024 1024" version="1.1" xmlns="http://www.w3.org/2000/svg" p-id="8360" xmlns:xlink="http://www.w3.org/1999/xlink" width="200" height="200"><defs><style type="text/css"></style></defs><path d="M871.423 395.823c-4.93 0-9.737 0.494-14.377 1.436v-88.57c0-64.032-51.406-116.176-114.817-116.176H281.77c-63.424 0-114.817 52.014-114.817 116.177v88.579a71.804 71.804 0 0 0-14.377-1.447c-39.978 0-71.884 32.6-71.884 72.814v115.771c0 40.236 32.088 72.814 71.671 72.814h14.59v159.644c0 7.857 6.473 14.622 14.458 14.622h46.068c8.065 0 16.066-6.256 18.05-13.974l41.205-160.292h450.398l41.206 160.292c1.984 7.718 9.984 13.974 18.049 13.974h46.068c7.984 0 14.456-6.765 14.456-14.622V657.221h14.724c39.519 0 71.67-32.6 71.67-72.814v-115.77c0.002-40.237-32.18-72.814-71.882-72.814z m-675.716-86.864c0-48.202 38.584-87.402 86.18-87.402h460.225c47.603 0 86.18 39.131 86.18 87.402v101.285c-17.506 13.238-28.753 34.363-28.753 58.165V512H224.462v-43.59c0-23.83-11.294-44.898-28.754-58.115V308.959z m23.989 493.484h-23.989V657.221h61.32l-37.331 145.222z m608.464 0H804.17l-37.33-145.222h61.32v145.222z m86.393-217.881c0 24.087-19.034 43.615-43.237 43.615H152.683c-23.88 0-43.237-19.494-43.237-43.615v-116.08c0-24.088 19.144-43.616 43.13-43.616 23.82 0 43.13 19.708 43.13 43.591v58.341c0 7.868 6.585 14.245 14.387 14.245h603.811c7.946 0 14.387-6.246 14.387-14.245v-58.34c0-24.075 19.144-43.592 43.13-43.592 23.82 0 43.13 19.494 43.13 43.616v116.08z" p-id="8361" fill="#f7f7f7"></path></svg>