<?xml version="1.0" standalone="no"?><!DOCTYPE svg PUBLIC "-//W3C//DTD SVG 1.1//EN" "http://www.w3.org/Graphics/SVG/1.1/DTD/svg11.dtd"><svg t="1605792843214" class="icon" viewBox="0 0 1024 1024" version="1.1" xmlns="http://www.w3.org/2000/svg" p-id="8031" xmlns:xlink="http://www.w3.org/1999/xlink" width="200" height="200"><defs><style type="text/css"></style></defs><path d="M256.804 459.839c4.422-8.904 15.224-12.538 24.128-8.116 8.904 4.421 12.537 15.223 8.116 24.127-20.319 40.918-31.135 86.956-31.135 134.787C257.913 765.302 370.81 890 509.136 890c138.326 0 251.223-124.698 251.223-279.363 0-47.02-10.452-92.313-30.12-132.723-4.351-8.939-0.632-19.712 8.307-24.063 8.938-4.35 19.711-0.63 24.062 8.308 22.056 45.315 33.751 95.995 33.751 148.478C796.36 784.43 668.186 926 509.136 926S221.913 784.43 221.913 610.637c0-53.39 12.103-104.908 34.891-150.798z" fill="#f7f7f7" p-id="8032"></path><path d="M209.597 234.683c-8.436-5.26-11.012-16.361-5.752-24.797 5.259-8.436 16.361-11.012 24.797-5.752L394.5 307.535a18 18 0 0 1 8.477 15.275v144.035c0 9.941-8.059 18-18 18s-18-8.059-18-18V332.8l-157.38-98.116z" fill="#f7f7f7" p-id="8033"></path><path d="M276.433 484.845c-9.941 0-18-8.059-18-18s8.059-18 18-18h465.71c9.94 0 18 8.059 18 18s-8.06 18-18 18h-465.71z" fill="#f7f7f7" p-id="8034"></path><path d="M640.096 466.845c0 9.941-8.06 18-18 18-9.941 0-18-8.059-18-18V256.83c0-9.941 8.059-18 18-18 9.94 0 18 8.059 18 18v210.016z" fill="#f7f7f7" p-id="8035"></path><path d="M442.882 274.83c-17.917 0-24.833-23.326-9.812-33.092l179.943-116.99a18 18 0 0 1 19.623 0l179.942 116.99c15.02 9.766 8.105 33.091-9.812 33.091H442.882z m60.708-36h238.468l-119.234-77.522L503.59 238.83z" fill="#f7f7f7" p-id="8036"></path></svg>