<?xml version="1.0" standalone="no"?><!DOCTYPE svg PUBLIC "-//W3C//DTD SVG 1.1//EN" "http://www.w3.org/Graphics/SVG/1.1/DTD/svg11.dtd"><svg t="1605792879048" class="icon" viewBox="0 0 1024 1024" version="1.1" xmlns="http://www.w3.org/2000/svg" p-id="8869" xmlns:xlink="http://www.w3.org/1999/xlink" width="200" height="200"><defs><style type="text/css"></style></defs><path d="M59.651547 448.521247h648.743782a16.648116 16.648116 0 0 1 16.648116 16.648116v244.514208a293.006841 293.006841 0 0 1-293.006841 293.006841H336.010272a293.006841 293.006841 0 0 1-293.006841-293.006841v-244.527527a16.648116 16.648116 0 0 1 16.648116-16.648116z" fill="#f7f7f7" p-id="8870"></path><path d="M432.036604 1024H336.010272c-83.626816 0-162.485612-32.790129-222.005956-92.310473S21.693843 793.310387 21.693843 709.683571v-244.527527a37.99766 37.99766 0 0 1 37.957704-37.957704h648.743782a38.010978 38.010978 0 0 1 37.957704 37.957704v244.527527c0 83.626816-32.790129 162.485612-92.310473 222.005956s-138.37914 92.310473-222.005956 92.310473zM64.31302 469.817517v239.866054c0 149.806406 121.877527 271.697252 271.697252 271.697252h96.026332c149.819725 0 271.697252-121.890846 271.697253-271.697252v-239.866054z" fill="#f7f7f7" p-id="8871"></path><path d="M852.927612 767.965295a149.167119 149.167119 0 1 1 149.167119-149.167118 149.353578 149.353578 0 0 1-149.167119 149.167118z m0-255.71506a106.547942 106.547942 0 1 0 106.547942 106.547942 106.694445 106.694445 0 0 0-106.547942-106.601216zM202.186057 213.88936a21.309588 21.309588 0 0 1-15.076534-6.246373L157.542469 178.049296a100.514665 100.514665 0 0 1 0-141.988451l29.567054-29.593691a21.309588 21.309588 0 1 1 30.139749 30.12643l-29.593691 29.60701a57.828896 57.828896 0 0 0 0 81.708953l29.593691 29.593691a21.309588 21.309588 0 0 1-15.063215 36.386122z" fill="#f7f7f7" p-id="8872"></path><path d="M202.186057 384.925444a21.309588 21.309588 0 0 1-15.076534-36.372804l29.607009-29.607009a57.855533 57.855533 0 0 0 0-81.708953l-29.607009-29.593691a21.309588 21.309588 0 0 1 30.139749-30.139749l29.593691 29.593691a100.514665 100.514665 0 0 1 0 141.988451l-29.593691 29.593691a21.20304 21.20304 0 0 1-15.063215 6.246373zM383.717113 213.88936a21.309588 21.309588 0 0 1-15.063216-6.246373l-29.59369-29.593691a100.394798 100.394798 0 0 1 0-141.988451l29.59369-29.593691a21.309588 21.309588 0 0 1 30.126431 30.12643l-29.593691 29.60701a57.802259 57.802259 0 0 0 0 81.708953l29.593691 29.593691a21.309588 21.309588 0 0 1-15.063215 36.386122z" fill="#f7f7f7" p-id="8873"></path><path d="M383.717113 384.925444a21.309588 21.309588 0 0 1-15.063216-36.372804l29.593691-29.607009a57.855533 57.855533 0 0 0 0-81.708953l-29.593691-29.593691a21.309588 21.309588 0 1 1 30.126431-30.139749l29.607009 29.593691a100.514665 100.514665 0 0 1 0 141.988451l-29.607009 29.593691a21.189722 21.189722 0 0 1-15.063215 6.246373zM565.86082 213.88936a21.309588 21.309588 0 0 1-15.063216-6.246373l-29.593691-29.593691a100.514665 100.514665 0 0 1 0-141.988451l29.593691-29.593691a21.309588 21.309588 0 0 1 30.139749 30.12643l-29.607009 29.60701a57.855533 57.855533 0 0 0 0 81.708953l29.607009 29.593691a21.309588 21.309588 0 0 1-15.076533 36.386122z" fill="#f7f7f7" p-id="8874"></path><path d="M565.86082 384.925444a21.309588 21.309588 0 0 1-15.063216-36.372804l29.593691-29.607009a57.762303 57.762303 0 0 0 0-81.708953l-29.593691-29.593691a21.309588 21.309588 0 0 1 30.139749-30.139749l29.593691 29.593691a100.394798 100.394798 0 0 1 0 141.988451l-29.593691 29.593691a21.229677 21.229677 0 0 1-15.076533 6.246373z" fill="#f7f7f7" p-id="8875"></path></svg>