<?xml version="1.0" standalone="no"?><!DOCTYPE svg PUBLIC "-//W3C//DTD SVG 1.1//EN" "http://www.w3.org/Graphics/SVG/1.1/DTD/svg11.dtd"><svg t="1605790285372" class="icon" viewBox="0 0 1745 1024" version="1.1" xmlns="http://www.w3.org/2000/svg" p-id="6050" xmlns:xlink="http://www.w3.org/1999/xlink" width="340.8203125" height="200"><defs><style type="text/css"></style></defs><path d="M1361.147288 285.840491a158.800273 158.800273 0 0 1 3.141105-21.98773c2.09407-5.584185 2.443081-13.611452 4.53715-20.940696a134.02045 134.02045 0 0 1 128.436265-92.139059A135.067485 135.067485 0 1 1 1361.147288 285.840491zM204.871896 971.648262c0 30.71302 37.34424 52.351738 79.574643 52.351738H1106.368829c41.532379 0 123.899114-21.638718 123.899114-52.351738v-55.143831c0-29.316973-82.366735-38.740286-123.899114-38.740286H284.446539c-42.230402 0-79.574642 7.678255-79.574643 38.740286zM0.002094 87.252897a698.023177 698.023177 0 0 0 698.023177 699.768235 698.023177 698.023177 0 0 0 593.3197-355.642809 249.194274 249.194274 0 1 0 205.916837-393.33606 265.248807 265.248807 0 0 0-104.703477 40.485344c0-23.034765-3.490116-6.980232-5.584185-78.527607H5.586279C3.143198 72.245399 0.002094 58.633947 0.002094 87.252897z" p-id="6051" fill="#f7f7f7"></path></svg>