<?xml version="1.0" standalone="no"?><!DOCTYPE svg PUBLIC "-//W3C//DTD SVG 1.1//EN" "http://www.w3.org/Graphics/SVG/1.1/DTD/svg11.dtd"><svg t="1605790236848" class="icon" viewBox="0 0 1024 1024" version="1.1" xmlns="http://www.w3.org/2000/svg" p-id="3463" xmlns:xlink="http://www.w3.org/1999/xlink" width="200" height="200"><defs><style type="text/css"></style></defs><path d="M942.2 512.5c0-1.5-0.1-2.9-0.4-4.3-1.3-113.8-46.3-220.6-126.9-301.2-81.8-81.9-190.7-127-307.2-127h-0.1c-115.5 0.2-224.1 45.3-305.7 126.9-81.7 81.7-126.7 190.3-127 305.7-0.2 116.1 44.9 225.2 126.9 307.2 81.6 81.6 190.1 126.7 305.6 126.9h0.9c115.8 0 224.6-45 306.4-126.9 81.1-81.1 126-188.6 126.8-303.1 0.5-1.3 0.7-2.7 0.7-4.2zM796 764.9l-132.1-132c63.1-55.3 141.4-87.8 225.7-93.6-5.6 83.9-38.2 162.4-93.6 225.6z m-313.2 130c-84.1-5.5-162.7-38.4-226-93.9l251.6-251.6 83.4 83.3c-65.2 73.2-103.4 164.5-109 262.2z m145.1-226l132.1 132c-63.3 55.5-141.7 88-225.7 93.6 5.5-83.9 38.1-162.3 93.6-225.6z m-0.1-72.2l-83.4-83.3L796 261.8c55.5 63.3 88.4 141.9 93.9 225.9-97.6 5.7-189 44-262.1 109z m-407-334.8l130.5 130.4c-62.8 55.1-140.7 87.6-224 93.5 5.9-83.2 38.4-161.1 93.5-223.9z m36.1-36.1c62.8-55.1 140.7-87.6 224-93.5-5.9 83.3-38.4 161.1-93.5 223.9L256.9 225.8z m275.4-94.1c84.7 5.2 163.9 38.2 227.7 94L508.4 477.3l-85-84.9c64.8-72.7 103-163.5 108.9-260.7zM387.4 428.5l85 84.9L220.7 765c-55.9-63.7-88.9-142.9-94.1-227.6 97.3-6 188.1-44.2 260.8-108.9z" fill="#f7f7f7" p-id="3464"></path></svg>