<?xml version="1.0" standalone="no"?><!DOCTYPE svg PUBLIC "-//W3C//DTD SVG 1.1//EN" "http://www.w3.org/Graphics/SVG/1.1/DTD/svg11.dtd"><svg t="1605790317532" class="icon" viewBox="0 0 1024 1024" version="1.1" xmlns="http://www.w3.org/2000/svg" p-id="6716" xmlns:xlink="http://www.w3.org/1999/xlink" width="200" height="200"><defs><style type="text/css"></style></defs><path d="M839 257.5H712.5v-67c0-28.7-23.4-52.1-52.1-52.1H184c-28.7 0-52.1 23.4-52.1 52.1v640.1c0 28.7 23.4 52.1 52.1 52.1h595.8c61.4 0 111.3-49.9 111.3-111.3V309.6c0-28.7-23.3-52.1-52.1-52.1zM184 838c-4.1 0-7.5-3.3-7.5-7.4V190.5c0-4.1 3.3-7.4 7.5-7.4h476.4c4.1 0 7.5 3.3 7.5 7.4v580.8c0 25 8.4 48.1 22.4 66.7H184z m662.5-66.7c0 36.8-29.9 66.7-66.7 66.7h-0.6c-36.8 0-66.7-29.9-66.7-66.7V302.1H839c4.1 0 7.5 3.3 7.5 7.4v461.8zM571.1 539.5H273.3c-12.3 0-22.3 10-22.3 22.3s10 22.3 22.3 22.3h297.8c12.3 0 22.3-10 22.3-22.3s-10-22.3-22.3-22.3z m0 119H273.3c-12.3 0-22.3 10-22.3 22.3s10 22.3 22.3 22.3h297.8c12.3 0 22.3-10 22.3-22.3s-10-22.3-22.3-22.3z m0-356.5H273.3c-12.3 0-22.3 10-22.3 22.3v119.1c0 12.3 10 22.3 22.3 22.3h297.8c12.3 0 22.3-10 22.3-22.3v-119c0-12.4-10-22.4-22.3-22.4z m-22.3 119.1H295.6v-74.4h253.1v74.4z" fill="#f7f7f7" p-id="6717"></path></svg>