<?xml version="1.0" standalone="no"?><!DOCTYPE svg PUBLIC "-//W3C//DTD SVG 1.1//EN" "http://www.w3.org/Graphics/SVG/1.1/DTD/svg11.dtd"><svg t="1605790190273" class="icon" viewBox="0 0 1024 1024" version="1.1" xmlns="http://www.w3.org/2000/svg" p-id="1401" xmlns:xlink="http://www.w3.org/1999/xlink" width="200" height="200"><defs><style type="text/css"></style></defs><path d="M719.8 783.2m-144.2 0a144.2 144.2 0 1 0 288.4 0 144.2 144.2 0 1 0-288.4 0Z" fill="#dbdbdb" p-id="1402"></path><path d="M833.3 609.9c-41.7 0-75.7-34-75.7-75.7s34-75.7 75.7-75.7 75.7 34 75.7 75.7-34 75.7-75.7 75.7z m0-145.4c-38.4 0-69.7 31.3-69.7 69.7 0 38.4 31.3 69.7 69.7 69.7s69.7-31.3 69.7-69.7c0-38.4-31.3-69.7-69.7-69.7z" fill="#dbdbdb" p-id="1403"></path><path d="M524.4 904.6c-94.1 0-185-33.9-256-95.6-70.3-61-116.5-145-130.3-236.6-1.9-12.6-3.2-25.4-3.8-38.2-0.3-6.7-0.5-13.6-0.5-20.3 0-9.9 0.4-19.9 1.1-29.7 0.1-1.7 1.6-2.9 3.2-2.8 1.7 0.1 2.9 1.6 2.8 3.2-0.7 9.7-1.1 19.5-1.1 29.2 0 6.7 0.2 13.4 0.5 20 0.6 12.6 1.9 25.2 3.8 37.6 28 186.4 191.5 327 380.4 327 98.3 0 192-37.4 263.8-105.3 0.8-0.8 1.6-1.8 2.5-2.7 7.8-8.4 18.5-19.8 9.5-33.8L586.8 538.2 812 299c4.8-5 7-11.3 6.6-18.9-0.7-11-6.5-20.5-8.2-22.1l-4-1.5 1.6-1.7c-55.6-62.7-170-125.4-283.6-125.4-134.5 0-257 68.5-327.7 183.2-3 4.9-5.9 9.9-8.7 14.9-3.6 6.4-7 12.9-10.1 19.5-0.7 1.5-2.5 2.1-4 1.4-1.5-0.7-2.1-2.5-1.4-4 3.2-6.7 6.7-13.3 10.3-19.8 2.8-5.1 5.8-10.2 8.8-15.1 34.3-55.9 82.6-102.5 139.4-135 58.6-33.5 125.5-51.2 193.4-51.2 54 0 111.5 13.7 166.4 39.6 49.8 23.5 93.7 55.5 123.6 90l1.8 2.1-0.3 0.3c2.9 3.8 6.2 10.7 7.7 17.8 1.8 8.4 2 20.4-7.3 30l-221.2 235 209.9 215 0.2 0.2c11.8 18.1-1.9 32.7-10 41.4-0.9 1-1.7 1.9-2.5 2.7l-0.2 0.2c-73 69.1-168.2 107-268.1 107z m285.8-646.7z" fill="#dbdbdb" p-id="1404"></path><path d="M145.2 436.4c-0.2 0-0.4 0-0.6-0.1-1.6-0.3-2.7-1.9-2.3-3.6 1.4-6.6 3-13.2 4.7-19.7 1.7-6.2 3.5-12.5 5.5-18.7 1.8-5.7 3.8-11.3 5.9-16.9 0.6-1.6 2.3-2.3 3.9-1.8 1.6 0.6 2.3 2.3 1.8 3.9-2 5.5-4 11.1-5.8 16.7-1.9 6-3.8 12.2-5.4 18.4-1.7 6.4-3.3 12.9-4.6 19.3-0.5 1.5-1.8 2.5-3.1 2.5z" fill="#f7f7f7" p-id="1405"></path></svg>